<mxfile host="app.diagrams.net" agent="Mozilla/5.0 (Windows NT 10.0; Win64; x64) AppleWebKit/537.36 (KHTML, like Gecko) Chrome/127.0.0.0 Safari/537.36" version="24.7.6">
  <diagram id="C5RBs43oDa-KdzZeNtuy" name="Page-1">
    <mxGraphModel dx="954" dy="626" grid="1" gridSize="10" guides="1" tooltips="1" connect="1" arrows="1" fold="1" page="1" pageScale="1" pageWidth="2339" pageHeight="3300" math="0" shadow="0">
      <root>
        <mxCell id="WIyWlLk6GJQsqaUBKTNV-0" />
        <mxCell id="WIyWlLk6GJQsqaUBKTNV-1" parent="WIyWlLk6GJQsqaUBKTNV-0" />
        <mxCell id="UaGc_WDe4r00LndkHO5G-74" value="" style="rounded=0;whiteSpace=wrap;html=1;strokeColor=none;" vertex="1" parent="WIyWlLk6GJQsqaUBKTNV-1">
          <mxGeometry x="80" y="10" width="750" height="540" as="geometry" />
        </mxCell>
        <mxCell id="UaGc_WDe4r00LndkHO5G-2" value="" style="rounded=1;whiteSpace=wrap;html=1;glass=0;strokeWidth=1;shadow=0;" vertex="1" parent="WIyWlLk6GJQsqaUBKTNV-1">
          <mxGeometry x="170" y="65" width="190" height="140" as="geometry" />
        </mxCell>
        <mxCell id="UaGc_WDe4r00LndkHO5G-8" value="叶子节点 段" style="rounded=1;whiteSpace=wrap;html=1;glass=0;strokeWidth=1;shadow=0;" vertex="1" parent="WIyWlLk6GJQsqaUBKTNV-1">
          <mxGeometry x="207.5" y="80" width="115" height="30" as="geometry" />
        </mxCell>
        <mxCell id="UaGc_WDe4r00LndkHO5G-10" value="非叶子节点 段" style="rounded=1;whiteSpace=wrap;html=1;glass=0;strokeWidth=1;shadow=0;" vertex="1" parent="WIyWlLk6GJQsqaUBKTNV-1">
          <mxGeometry x="207.5" y="120" width="115" height="30" as="geometry" />
        </mxCell>
        <mxCell id="UaGc_WDe4r00LndkHO5G-11" value="回滚 段" style="rounded=1;whiteSpace=wrap;html=1;glass=0;strokeWidth=1;shadow=0;" vertex="1" parent="WIyWlLk6GJQsqaUBKTNV-1">
          <mxGeometry x="207.5" y="160" width="115" height="30" as="geometry" />
        </mxCell>
        <mxCell id="UaGc_WDe4r00LndkHO5G-13" value="&lt;b&gt;&lt;font style=&quot;font-size: 19px;&quot;&gt;表空间&lt;/font&gt;&lt;/b&gt;" style="text;html=1;align=center;verticalAlign=middle;resizable=0;points=[];autosize=1;strokeColor=none;fillColor=none;" vertex="1" parent="WIyWlLk6GJQsqaUBKTNV-1">
          <mxGeometry x="225" y="25" width="80" height="40" as="geometry" />
        </mxCell>
        <mxCell id="UaGc_WDe4r00LndkHO5G-14" value="" style="rounded=1;whiteSpace=wrap;html=1;glass=0;strokeWidth=1;shadow=0;" vertex="1" parent="WIyWlLk6GJQsqaUBKTNV-1">
          <mxGeometry x="490" y="65" width="180" height="140" as="geometry" />
        </mxCell>
        <mxCell id="UaGc_WDe4r00LndkHO5G-15" value="&lt;span style=&quot;font-size: 19px;&quot;&gt;&lt;b&gt;段&lt;/b&gt;&lt;/span&gt;" style="text;html=1;align=center;verticalAlign=middle;resizable=0;points=[];autosize=1;strokeColor=none;fillColor=none;" vertex="1" parent="WIyWlLk6GJQsqaUBKTNV-1">
          <mxGeometry x="555" y="20" width="40" height="40" as="geometry" />
        </mxCell>
        <mxCell id="UaGc_WDe4r00LndkHO5G-16" value="区" style="rounded=1;whiteSpace=wrap;html=1;glass=0;strokeWidth=1;shadow=0;" vertex="1" parent="WIyWlLk6GJQsqaUBKTNV-1">
          <mxGeometry x="500" y="90" width="70" height="30" as="geometry" />
        </mxCell>
        <mxCell id="UaGc_WDe4r00LndkHO5G-17" value="区" style="rounded=1;whiteSpace=wrap;html=1;glass=0;strokeWidth=1;shadow=0;" vertex="1" parent="WIyWlLk6GJQsqaUBKTNV-1">
          <mxGeometry x="595" y="90" width="70" height="30" as="geometry" />
        </mxCell>
        <mxCell id="UaGc_WDe4r00LndkHO5G-18" value="区" style="rounded=1;whiteSpace=wrap;html=1;glass=0;strokeWidth=1;shadow=0;" vertex="1" parent="WIyWlLk6GJQsqaUBKTNV-1">
          <mxGeometry x="500" y="150" width="70" height="30" as="geometry" />
        </mxCell>
        <mxCell id="UaGc_WDe4r00LndkHO5G-19" value="区" style="rounded=1;whiteSpace=wrap;html=1;glass=0;strokeWidth=1;shadow=0;" vertex="1" parent="WIyWlLk6GJQsqaUBKTNV-1">
          <mxGeometry x="595" y="150" width="70" height="30" as="geometry" />
        </mxCell>
        <mxCell id="UaGc_WDe4r00LndkHO5G-22" value="" style="endArrow=none;dashed=1;html=1;dashPattern=1 3;strokeWidth=2;rounded=0;exitX=1;exitY=0;exitDx=0;exitDy=0;entryX=0.084;entryY=-0.012;entryDx=0;entryDy=0;entryPerimeter=0;" edge="1" parent="WIyWlLk6GJQsqaUBKTNV-1" source="UaGc_WDe4r00LndkHO5G-8" target="UaGc_WDe4r00LndkHO5G-14">
          <mxGeometry width="50" height="50" relative="1" as="geometry">
            <mxPoint x="420" y="150" as="sourcePoint" />
            <mxPoint x="470" y="100" as="targetPoint" />
          </mxGeometry>
        </mxCell>
        <mxCell id="UaGc_WDe4r00LndkHO5G-23" value="" style="endArrow=none;dashed=1;html=1;dashPattern=1 3;strokeWidth=2;rounded=0;exitX=1;exitY=0.75;exitDx=0;exitDy=0;entryX=-0.004;entryY=0.855;entryDx=0;entryDy=0;entryPerimeter=0;" edge="1" parent="WIyWlLk6GJQsqaUBKTNV-1" source="UaGc_WDe4r00LndkHO5G-8" target="UaGc_WDe4r00LndkHO5G-14">
          <mxGeometry width="50" height="50" relative="1" as="geometry">
            <mxPoint x="420" y="150" as="sourcePoint" />
            <mxPoint x="470" y="100" as="targetPoint" />
          </mxGeometry>
        </mxCell>
        <mxCell id="UaGc_WDe4r00LndkHO5G-31" value="" style="rounded=1;whiteSpace=wrap;html=1;glass=0;strokeWidth=1;shadow=0;" vertex="1" parent="WIyWlLk6GJQsqaUBKTNV-1">
          <mxGeometry x="610" y="305" width="180" height="125" as="geometry" />
        </mxCell>
        <mxCell id="UaGc_WDe4r00LndkHO5G-32" value="&lt;span style=&quot;font-size: 19px;&quot;&gt;&lt;b&gt;区&lt;/b&gt;&lt;/span&gt;" style="text;html=1;align=center;verticalAlign=middle;resizable=0;points=[];autosize=1;strokeColor=none;fillColor=none;" vertex="1" parent="WIyWlLk6GJQsqaUBKTNV-1">
          <mxGeometry x="685" y="260" width="40" height="40" as="geometry" />
        </mxCell>
        <mxCell id="UaGc_WDe4r00LndkHO5G-36" value="页" style="rounded=1;whiteSpace=wrap;html=1;glass=0;strokeWidth=1;shadow=0;" vertex="1" parent="WIyWlLk6GJQsqaUBKTNV-1">
          <mxGeometry x="630" y="322.5" width="25" height="20" as="geometry" />
        </mxCell>
        <mxCell id="UaGc_WDe4r00LndkHO5G-37" value="" style="rounded=1;whiteSpace=wrap;html=1;glass=0;strokeWidth=1;shadow=0;" vertex="1" parent="WIyWlLk6GJQsqaUBKTNV-1">
          <mxGeometry x="390" y="350" width="180" height="140" as="geometry" />
        </mxCell>
        <mxCell id="UaGc_WDe4r00LndkHO5G-38" value="&lt;span style=&quot;font-size: 19px;&quot;&gt;&lt;b&gt;页&lt;/b&gt;&lt;/span&gt;" style="text;html=1;align=center;verticalAlign=middle;resizable=0;points=[];autosize=1;strokeColor=none;fillColor=none;" vertex="1" parent="WIyWlLk6GJQsqaUBKTNV-1">
          <mxGeometry x="455" y="305" width="40" height="40" as="geometry" />
        </mxCell>
        <mxCell id="UaGc_WDe4r00LndkHO5G-39" value="行" style="rounded=1;whiteSpace=wrap;html=1;glass=0;strokeWidth=1;shadow=0;" vertex="1" parent="WIyWlLk6GJQsqaUBKTNV-1">
          <mxGeometry x="400" y="375" width="70" height="30" as="geometry" />
        </mxCell>
        <mxCell id="UaGc_WDe4r00LndkHO5G-40" value="行" style="rounded=1;whiteSpace=wrap;html=1;glass=0;strokeWidth=1;shadow=0;" vertex="1" parent="WIyWlLk6GJQsqaUBKTNV-1">
          <mxGeometry x="495" y="375" width="70" height="30" as="geometry" />
        </mxCell>
        <mxCell id="UaGc_WDe4r00LndkHO5G-41" value="行" style="rounded=1;whiteSpace=wrap;html=1;glass=0;strokeWidth=1;shadow=0;" vertex="1" parent="WIyWlLk6GJQsqaUBKTNV-1">
          <mxGeometry x="400" y="435" width="70" height="30" as="geometry" />
        </mxCell>
        <mxCell id="UaGc_WDe4r00LndkHO5G-42" value="行" style="rounded=1;whiteSpace=wrap;html=1;glass=0;strokeWidth=1;shadow=0;" vertex="1" parent="WIyWlLk6GJQsqaUBKTNV-1">
          <mxGeometry x="495" y="435" width="70" height="30" as="geometry" />
        </mxCell>
        <mxCell id="UaGc_WDe4r00LndkHO5G-43" value="" style="rounded=1;whiteSpace=wrap;html=1;glass=0;strokeWidth=1;shadow=0;" vertex="1" parent="WIyWlLk6GJQsqaUBKTNV-1">
          <mxGeometry x="115" y="380" width="190" height="140" as="geometry" />
        </mxCell>
        <mxCell id="UaGc_WDe4r00LndkHO5G-44" value="&lt;span style=&quot;font-size: 19px;&quot;&gt;&lt;b&gt;行&lt;/b&gt;&lt;/span&gt;" style="text;html=1;align=center;verticalAlign=middle;resizable=0;points=[];autosize=1;strokeColor=none;fillColor=none;" vertex="1" parent="WIyWlLk6GJQsqaUBKTNV-1">
          <mxGeometry x="190" y="335" width="40" height="40" as="geometry" />
        </mxCell>
        <mxCell id="UaGc_WDe4r00LndkHO5G-45" value="Row id：主键" style="rounded=1;whiteSpace=wrap;html=1;glass=0;strokeWidth=1;shadow=0;" vertex="1" parent="WIyWlLk6GJQsqaUBKTNV-1">
          <mxGeometry x="160" y="387.5" width="100" height="30" as="geometry" />
        </mxCell>
        <mxCell id="UaGc_WDe4r00LndkHO5G-49" value="" style="endArrow=none;dashed=1;html=1;dashPattern=1 3;strokeWidth=2;rounded=0;entryX=0;entryY=1;entryDx=0;entryDy=0;exitX=0.074;exitY=-0.012;exitDx=0;exitDy=0;exitPerimeter=0;" edge="1" parent="WIyWlLk6GJQsqaUBKTNV-1" source="UaGc_WDe4r00LndkHO5G-31" target="UaGc_WDe4r00LndkHO5G-19">
          <mxGeometry width="50" height="50" relative="1" as="geometry">
            <mxPoint x="420" y="250" as="sourcePoint" />
            <mxPoint x="470" y="200" as="targetPoint" />
          </mxGeometry>
        </mxCell>
        <mxCell id="UaGc_WDe4r00LndkHO5G-50" value="" style="endArrow=none;dashed=1;html=1;dashPattern=1 3;strokeWidth=2;rounded=0;entryX=0;entryY=1;entryDx=0;entryDy=0;" edge="1" parent="WIyWlLk6GJQsqaUBKTNV-1" target="UaGc_WDe4r00LndkHO5G-19">
          <mxGeometry width="50" height="50" relative="1" as="geometry">
            <mxPoint x="780" y="300" as="sourcePoint" />
            <mxPoint x="470" y="200" as="targetPoint" />
          </mxGeometry>
        </mxCell>
        <mxCell id="UaGc_WDe4r00LndkHO5G-52" value="页" style="rounded=1;whiteSpace=wrap;html=1;glass=0;strokeWidth=1;shadow=0;" vertex="1" parent="WIyWlLk6GJQsqaUBKTNV-1">
          <mxGeometry x="665" y="322.5" width="25" height="20" as="geometry" />
        </mxCell>
        <mxCell id="UaGc_WDe4r00LndkHO5G-53" value="页" style="rounded=1;whiteSpace=wrap;html=1;glass=0;strokeWidth=1;shadow=0;" vertex="1" parent="WIyWlLk6GJQsqaUBKTNV-1">
          <mxGeometry x="700" y="322.5" width="25" height="20" as="geometry" />
        </mxCell>
        <mxCell id="UaGc_WDe4r00LndkHO5G-54" value="页" style="rounded=1;whiteSpace=wrap;html=1;glass=0;strokeWidth=1;shadow=0;arcSize=0;" vertex="1" parent="WIyWlLk6GJQsqaUBKTNV-1">
          <mxGeometry x="740" y="322.5" width="25" height="20" as="geometry" />
        </mxCell>
        <mxCell id="UaGc_WDe4r00LndkHO5G-60" value="页" style="rounded=1;whiteSpace=wrap;html=1;glass=0;strokeWidth=1;shadow=0;" vertex="1" parent="WIyWlLk6GJQsqaUBKTNV-1">
          <mxGeometry x="630" y="357.5" width="25" height="20" as="geometry" />
        </mxCell>
        <mxCell id="UaGc_WDe4r00LndkHO5G-61" value="页" style="rounded=1;whiteSpace=wrap;html=1;glass=0;strokeWidth=1;shadow=0;" vertex="1" parent="WIyWlLk6GJQsqaUBKTNV-1">
          <mxGeometry x="665" y="357.5" width="25" height="20" as="geometry" />
        </mxCell>
        <mxCell id="UaGc_WDe4r00LndkHO5G-62" value="页" style="rounded=1;whiteSpace=wrap;html=1;glass=0;strokeWidth=1;shadow=0;" vertex="1" parent="WIyWlLk6GJQsqaUBKTNV-1">
          <mxGeometry x="700" y="357.5" width="25" height="20" as="geometry" />
        </mxCell>
        <mxCell id="UaGc_WDe4r00LndkHO5G-63" value="页" style="rounded=1;whiteSpace=wrap;html=1;glass=0;strokeWidth=1;shadow=0;arcSize=0;" vertex="1" parent="WIyWlLk6GJQsqaUBKTNV-1">
          <mxGeometry x="740" y="357.5" width="25" height="20" as="geometry" />
        </mxCell>
        <mxCell id="UaGc_WDe4r00LndkHO5G-64" value="页" style="rounded=1;whiteSpace=wrap;html=1;glass=0;strokeWidth=1;shadow=0;" vertex="1" parent="WIyWlLk6GJQsqaUBKTNV-1">
          <mxGeometry x="630" y="392.5" width="25" height="20" as="geometry" />
        </mxCell>
        <mxCell id="UaGc_WDe4r00LndkHO5G-65" value="页" style="rounded=1;whiteSpace=wrap;html=1;glass=0;strokeWidth=1;shadow=0;" vertex="1" parent="WIyWlLk6GJQsqaUBKTNV-1">
          <mxGeometry x="665" y="392.5" width="25" height="20" as="geometry" />
        </mxCell>
        <mxCell id="UaGc_WDe4r00LndkHO5G-66" value="页" style="rounded=1;whiteSpace=wrap;html=1;glass=0;strokeWidth=1;shadow=0;" vertex="1" parent="WIyWlLk6GJQsqaUBKTNV-1">
          <mxGeometry x="700" y="392.5" width="25" height="20" as="geometry" />
        </mxCell>
        <mxCell id="UaGc_WDe4r00LndkHO5G-67" value="页" style="rounded=1;whiteSpace=wrap;html=1;glass=0;strokeWidth=1;shadow=0;arcSize=0;" vertex="1" parent="WIyWlLk6GJQsqaUBKTNV-1">
          <mxGeometry x="740" y="392.5" width="25" height="20" as="geometry" />
        </mxCell>
        <mxCell id="UaGc_WDe4r00LndkHO5G-68" value="" style="endArrow=none;dashed=1;html=1;dashPattern=1 3;strokeWidth=2;rounded=0;exitX=0.896;exitY=-0.006;exitDx=0;exitDy=0;exitPerimeter=0;entryX=0;entryY=0.5;entryDx=0;entryDy=0;" edge="1" parent="WIyWlLk6GJQsqaUBKTNV-1" source="UaGc_WDe4r00LndkHO5G-37" target="UaGc_WDe4r00LndkHO5G-60">
          <mxGeometry width="50" height="50" relative="1" as="geometry">
            <mxPoint x="530" y="340" as="sourcePoint" />
            <mxPoint x="610" y="363" as="targetPoint" />
          </mxGeometry>
        </mxCell>
        <mxCell id="UaGc_WDe4r00LndkHO5G-69" value="" style="endArrow=none;dashed=1;html=1;dashPattern=1 3;strokeWidth=2;rounded=0;exitX=0.952;exitY=0.98;exitDx=0;exitDy=0;exitPerimeter=0;entryX=0;entryY=1;entryDx=0;entryDy=0;" edge="1" parent="WIyWlLk6GJQsqaUBKTNV-1" source="UaGc_WDe4r00LndkHO5G-37" target="UaGc_WDe4r00LndkHO5G-60">
          <mxGeometry width="50" height="50" relative="1" as="geometry">
            <mxPoint x="430" y="350" as="sourcePoint" />
            <mxPoint x="480" y="300" as="targetPoint" />
          </mxGeometry>
        </mxCell>
        <mxCell id="UaGc_WDe4r00LndkHO5G-70" value="Trx id：事务id" style="rounded=1;whiteSpace=wrap;html=1;glass=0;strokeWidth=1;shadow=0;" vertex="1" parent="WIyWlLk6GJQsqaUBKTNV-1">
          <mxGeometry x="160" y="435" width="100" height="30" as="geometry" />
        </mxCell>
        <mxCell id="UaGc_WDe4r00LndkHO5G-71" value="Roll Pointner：回滚指针" style="rounded=1;whiteSpace=wrap;html=1;glass=0;strokeWidth=1;shadow=0;" vertex="1" parent="WIyWlLk6GJQsqaUBKTNV-1">
          <mxGeometry x="142.5" y="475" width="135" height="30" as="geometry" />
        </mxCell>
        <mxCell id="UaGc_WDe4r00LndkHO5G-72" value="" style="endArrow=none;dashed=1;html=1;dashPattern=1 3;strokeWidth=2;rounded=0;exitX=0.919;exitY=0.002;exitDx=0;exitDy=0;exitPerimeter=0;" edge="1" parent="WIyWlLk6GJQsqaUBKTNV-1" source="UaGc_WDe4r00LndkHO5G-43" target="UaGc_WDe4r00LndkHO5G-41">
          <mxGeometry width="50" height="50" relative="1" as="geometry">
            <mxPoint x="430" y="350" as="sourcePoint" />
            <mxPoint x="480" y="300" as="targetPoint" />
          </mxGeometry>
        </mxCell>
        <mxCell id="UaGc_WDe4r00LndkHO5G-73" value="" style="endArrow=none;dashed=1;html=1;dashPattern=1 3;strokeWidth=2;rounded=0;entryX=0.105;entryY=0.872;entryDx=0;entryDy=0;entryPerimeter=0;" edge="1" parent="WIyWlLk6GJQsqaUBKTNV-1" target="UaGc_WDe4r00LndkHO5G-41">
          <mxGeometry width="50" height="50" relative="1" as="geometry">
            <mxPoint x="300" y="510" as="sourcePoint" />
            <mxPoint x="480" y="300" as="targetPoint" />
          </mxGeometry>
        </mxCell>
      </root>
    </mxGraphModel>
  </diagram>
</mxfile>
